<svg xmlns="http://www.w3.org/2000/svg" width="17.458" height="17.458" viewBox="0 0 17.458 17.458"><defs><style>.a,.b{fill:#f4b229;}.a{stroke:#f4b229;stroke-width:0.5px;}</style></defs><g transform="translate(-20.25 -19.478)"><g transform="translate(20.5 19.728)"><g transform="translate(4.183 4.57)"><path class="a" d="M.2,2.872l1.773-1.1a.4.4,0,0,0,.154-.337A.4.4,0,0,0,1.973,1.1L.2,0,0,.674l1.23.763L0,2.2Z" transform="translate(0 2.127) rotate(-90)"/><path class="a" d="M.154,1.773l1.773,1.1.2-.674L.9,1.436,2.126.674,1.927,0,.154,1.1A.4.4,0,0,0,0,1.436.4.4,0,0,0,.154,1.773Z" transform="translate(8.549 0) rotate(90)"/></g><path class="a" d="M12.479,4a8.479,8.479,0,1,0,8.479,8.479A8.488,8.488,0,0,0,12.479,4Zm0,16.352a7.873,7.873,0,1,1,7.873-7.873A7.882,7.882,0,0,1,12.479,20.352Z" transform="translate(-4 -4)"/></g><g transform="translate(23.893 28.853)"><g transform="translate(0 0)"><path class="b" d="M105.7,208H96.462a.435.435,0,0,0-.462.4c0,2.434,2.279,4.415,5.081,4.415s5.081-1.981,5.081-4.415A.435.435,0,0,0,105.7,208Z" transform="translate(-96 -208)"/></g></g></g></svg>